<mxfile host="app.diagrams.net" modified="2020-10-14T08:38:32.743Z" agent="5.0 (Macintosh; Intel Mac OS X 10_15_6) AppleWebKit/537.36 (KHTML, like Gecko) Chrome/86.0.4240.75 Safari/537.36" etag="y4xeg3W0pE3dbu2n5YNa" version="13.8.0" type="github">
  <diagram id="eAZEPAsLP3Dhfx2JvJBX" name="Page-1">
    <mxGraphModel dx="537" dy="301" grid="1" gridSize="10" guides="1" tooltips="1" connect="1" arrows="1" fold="1" page="1" pageScale="1" pageWidth="850" pageHeight="1100" math="0" shadow="0">
      <root>
        <mxCell id="0" />
        <mxCell id="1" parent="0" />
        <mxCell id="sfMBgz_jQD0GcyN78Wl_-1" value="" style="ellipse;whiteSpace=wrap;html=1;aspect=fixed;" vertex="1" parent="1">
          <mxGeometry x="240" y="360" width="40" height="40" as="geometry" />
        </mxCell>
        <mxCell id="sfMBgz_jQD0GcyN78Wl_-2" value="" style="ellipse;whiteSpace=wrap;html=1;aspect=fixed;" vertex="1" parent="1">
          <mxGeometry x="240" y="440" width="40" height="40" as="geometry" />
        </mxCell>
        <mxCell id="sfMBgz_jQD0GcyN78Wl_-4" value="" style="ellipse;whiteSpace=wrap;html=1;aspect=fixed;" vertex="1" parent="1">
          <mxGeometry x="340" y="300" width="40" height="40" as="geometry" />
        </mxCell>
        <mxCell id="sfMBgz_jQD0GcyN78Wl_-5" value="" style="ellipse;whiteSpace=wrap;html=1;aspect=fixed;" vertex="1" parent="1">
          <mxGeometry x="340" y="400" width="40" height="40" as="geometry" />
        </mxCell>
        <mxCell id="sfMBgz_jQD0GcyN78Wl_-6" value="" style="ellipse;whiteSpace=wrap;html=1;aspect=fixed;" vertex="1" parent="1">
          <mxGeometry x="340" y="500" width="40" height="40" as="geometry" />
        </mxCell>
        <mxCell id="sfMBgz_jQD0GcyN78Wl_-7" value="" style="ellipse;whiteSpace=wrap;html=1;aspect=fixed;" vertex="1" parent="1">
          <mxGeometry x="440" y="400" width="40" height="40" as="geometry" />
        </mxCell>
        <mxCell id="sfMBgz_jQD0GcyN78Wl_-8" value="" style="endArrow=classic;html=1;exitX=1;exitY=0.5;exitDx=0;exitDy=0;entryX=0;entryY=0.5;entryDx=0;entryDy=0;" edge="1" parent="1" source="sfMBgz_jQD0GcyN78Wl_-1" target="sfMBgz_jQD0GcyN78Wl_-4">
          <mxGeometry width="50" height="50" relative="1" as="geometry">
            <mxPoint x="410" y="400" as="sourcePoint" />
            <mxPoint x="460" y="350" as="targetPoint" />
          </mxGeometry>
        </mxCell>
        <mxCell id="sfMBgz_jQD0GcyN78Wl_-9" value="" style="endArrow=classic;html=1;exitX=1;exitY=0.5;exitDx=0;exitDy=0;entryX=0;entryY=0.5;entryDx=0;entryDy=0;" edge="1" parent="1" source="sfMBgz_jQD0GcyN78Wl_-2" target="sfMBgz_jQD0GcyN78Wl_-4">
          <mxGeometry width="50" height="50" relative="1" as="geometry">
            <mxPoint x="410" y="400" as="sourcePoint" />
            <mxPoint x="460" y="350" as="targetPoint" />
          </mxGeometry>
        </mxCell>
        <mxCell id="sfMBgz_jQD0GcyN78Wl_-12" value="" style="endArrow=classic;html=1;exitX=1;exitY=0.5;exitDx=0;exitDy=0;entryX=0;entryY=0.5;entryDx=0;entryDy=0;" edge="1" parent="1" source="sfMBgz_jQD0GcyN78Wl_-2" target="sfMBgz_jQD0GcyN78Wl_-5">
          <mxGeometry width="50" height="50" relative="1" as="geometry">
            <mxPoint x="410" y="400" as="sourcePoint" />
            <mxPoint x="460" y="350" as="targetPoint" />
          </mxGeometry>
        </mxCell>
        <mxCell id="sfMBgz_jQD0GcyN78Wl_-13" value="" style="endArrow=classic;html=1;exitX=1;exitY=0.5;exitDx=0;exitDy=0;entryX=0;entryY=0.5;entryDx=0;entryDy=0;" edge="1" parent="1" source="sfMBgz_jQD0GcyN78Wl_-2" target="sfMBgz_jQD0GcyN78Wl_-6">
          <mxGeometry width="50" height="50" relative="1" as="geometry">
            <mxPoint x="410" y="400" as="sourcePoint" />
            <mxPoint x="460" y="350" as="targetPoint" />
          </mxGeometry>
        </mxCell>
        <mxCell id="sfMBgz_jQD0GcyN78Wl_-14" value="" style="endArrow=classic;html=1;exitX=1;exitY=0.5;exitDx=0;exitDy=0;entryX=0;entryY=0.5;entryDx=0;entryDy=0;" edge="1" parent="1" source="sfMBgz_jQD0GcyN78Wl_-1" target="sfMBgz_jQD0GcyN78Wl_-5">
          <mxGeometry width="50" height="50" relative="1" as="geometry">
            <mxPoint x="410" y="400" as="sourcePoint" />
            <mxPoint x="460" y="350" as="targetPoint" />
          </mxGeometry>
        </mxCell>
        <mxCell id="sfMBgz_jQD0GcyN78Wl_-16" value="" style="endArrow=classic;html=1;exitX=1;exitY=0.5;exitDx=0;exitDy=0;entryX=0;entryY=0.5;entryDx=0;entryDy=0;" edge="1" parent="1" source="sfMBgz_jQD0GcyN78Wl_-1" target="sfMBgz_jQD0GcyN78Wl_-6">
          <mxGeometry width="50" height="50" relative="1" as="geometry">
            <mxPoint x="410" y="400" as="sourcePoint" />
            <mxPoint x="460" y="350" as="targetPoint" />
          </mxGeometry>
        </mxCell>
        <mxCell id="sfMBgz_jQD0GcyN78Wl_-17" value="" style="endArrow=classic;html=1;exitX=1;exitY=0.5;exitDx=0;exitDy=0;entryX=0;entryY=0.5;entryDx=0;entryDy=0;" edge="1" parent="1" source="sfMBgz_jQD0GcyN78Wl_-4" target="sfMBgz_jQD0GcyN78Wl_-7">
          <mxGeometry width="50" height="50" relative="1" as="geometry">
            <mxPoint x="410" y="400" as="sourcePoint" />
            <mxPoint x="460" y="350" as="targetPoint" />
          </mxGeometry>
        </mxCell>
        <mxCell id="sfMBgz_jQD0GcyN78Wl_-18" value="" style="endArrow=classic;html=1;exitX=1;exitY=0.5;exitDx=0;exitDy=0;entryX=0;entryY=0.5;entryDx=0;entryDy=0;" edge="1" parent="1" source="sfMBgz_jQD0GcyN78Wl_-6" target="sfMBgz_jQD0GcyN78Wl_-7">
          <mxGeometry width="50" height="50" relative="1" as="geometry">
            <mxPoint x="410" y="400" as="sourcePoint" />
            <mxPoint x="460" y="350" as="targetPoint" />
          </mxGeometry>
        </mxCell>
        <mxCell id="sfMBgz_jQD0GcyN78Wl_-19" value="" style="endArrow=classic;html=1;exitX=1;exitY=0.5;exitDx=0;exitDy=0;entryX=0;entryY=0.5;entryDx=0;entryDy=0;" edge="1" parent="1" source="sfMBgz_jQD0GcyN78Wl_-5" target="sfMBgz_jQD0GcyN78Wl_-7">
          <mxGeometry width="50" height="50" relative="1" as="geometry">
            <mxPoint x="410" y="400" as="sourcePoint" />
            <mxPoint x="460" y="350" as="targetPoint" />
          </mxGeometry>
        </mxCell>
        <mxCell id="sfMBgz_jQD0GcyN78Wl_-20" value="" style="endArrow=classic;html=1;exitX=0.5;exitY=0;exitDx=0;exitDy=0;" edge="1" parent="1" source="sfMBgz_jQD0GcyN78Wl_-4">
          <mxGeometry width="50" height="50" relative="1" as="geometry">
            <mxPoint x="350" y="440" as="sourcePoint" />
            <mxPoint x="360" y="290" as="targetPoint" />
            <Array as="points">
              <mxPoint x="360" y="290" />
            </Array>
          </mxGeometry>
        </mxCell>
        <mxCell id="sfMBgz_jQD0GcyN78Wl_-21" value="" style="endArrow=classic;html=1;exitX=0.5;exitY=0;exitDx=0;exitDy=0;" edge="1" parent="1">
          <mxGeometry width="50" height="50" relative="1" as="geometry">
            <mxPoint x="359.71" y="400" as="sourcePoint" />
            <mxPoint x="359.71" y="370" as="targetPoint" />
            <Array as="points">
              <mxPoint x="359.71" y="370" />
            </Array>
          </mxGeometry>
        </mxCell>
        <mxCell id="sfMBgz_jQD0GcyN78Wl_-22" value="" style="endArrow=classic;html=1;exitX=0.5;exitY=0;exitDx=0;exitDy=0;" edge="1" parent="1">
          <mxGeometry width="50" height="50" relative="1" as="geometry">
            <mxPoint x="359.71" y="500" as="sourcePoint" />
            <mxPoint x="359.71" y="470" as="targetPoint" />
            <Array as="points">
              <mxPoint x="359.71" y="470" />
            </Array>
          </mxGeometry>
        </mxCell>
        <mxCell id="sfMBgz_jQD0GcyN78Wl_-23" value="" style="endArrow=classic;html=1;exitX=0.5;exitY=0;exitDx=0;exitDy=0;" edge="1" parent="1" source="sfMBgz_jQD0GcyN78Wl_-7">
          <mxGeometry width="50" height="50" relative="1" as="geometry">
            <mxPoint x="350" y="440" as="sourcePoint" />
            <mxPoint x="460" y="370" as="targetPoint" />
          </mxGeometry>
        </mxCell>
        <mxCell id="sfMBgz_jQD0GcyN78Wl_-24" value="0" style="text;html=1;strokeColor=none;fillColor=none;align=center;verticalAlign=middle;whiteSpace=wrap;rounded=0;" vertex="1" parent="1">
          <mxGeometry x="385" y="420" width="40" height="20" as="geometry" />
        </mxCell>
        <mxCell id="sfMBgz_jQD0GcyN78Wl_-25" value="0" style="text;html=1;strokeColor=none;fillColor=none;align=center;verticalAlign=middle;whiteSpace=wrap;rounded=0;" vertex="1" parent="1">
          <mxGeometry x="400" y="480" width="40" height="20" as="geometry" />
        </mxCell>
        <mxCell id="sfMBgz_jQD0GcyN78Wl_-26" value="1" style="text;html=1;strokeColor=none;fillColor=none;align=center;verticalAlign=middle;whiteSpace=wrap;rounded=0;" vertex="1" parent="1">
          <mxGeometry x="400" y="340" width="40" height="20" as="geometry" />
        </mxCell>
        <mxCell id="sfMBgz_jQD0GcyN78Wl_-27" value="-0.5" style="text;html=1;strokeColor=none;fillColor=none;align=center;verticalAlign=middle;whiteSpace=wrap;rounded=0;" vertex="1" parent="1">
          <mxGeometry x="440" y="340" width="40" height="20" as="geometry" />
        </mxCell>
        <mxCell id="sfMBgz_jQD0GcyN78Wl_-28" value="1" style="text;html=1;strokeColor=none;fillColor=none;align=center;verticalAlign=middle;whiteSpace=wrap;rounded=0;" vertex="1" parent="1">
          <mxGeometry x="280" y="320" width="40" height="20" as="geometry" />
        </mxCell>
        <mxCell id="sfMBgz_jQD0GcyN78Wl_-29" value="1" style="text;html=1;strokeColor=none;fillColor=none;align=center;verticalAlign=middle;whiteSpace=wrap;rounded=0;" vertex="1" parent="1">
          <mxGeometry x="320" y="360" width="40" height="20" as="geometry" />
        </mxCell>
        <mxCell id="sfMBgz_jQD0GcyN78Wl_-30" value="-2" style="text;html=1;strokeColor=none;fillColor=none;align=center;verticalAlign=middle;whiteSpace=wrap;rounded=0;" vertex="1" parent="1">
          <mxGeometry x="340" y="260" width="40" height="20" as="geometry" />
        </mxCell>
        <mxCell id="sfMBgz_jQD0GcyN78Wl_-31" value="3" style="text;html=1;strokeColor=none;fillColor=none;align=center;verticalAlign=middle;whiteSpace=wrap;rounded=0;" vertex="1" parent="1">
          <mxGeometry x="310" y="390" width="40" height="20" as="geometry" />
        </mxCell>
        <mxCell id="sfMBgz_jQD0GcyN78Wl_-32" value="4" style="text;html=1;strokeColor=none;fillColor=none;align=center;verticalAlign=middle;whiteSpace=wrap;rounded=0;" vertex="1" parent="1">
          <mxGeometry x="310" y="430" width="40" height="20" as="geometry" />
        </mxCell>
        <mxCell id="sfMBgz_jQD0GcyN78Wl_-33" value="-12" style="text;html=1;strokeColor=none;fillColor=none;align=center;verticalAlign=middle;whiteSpace=wrap;rounded=0;" vertex="1" parent="1">
          <mxGeometry x="340" y="350" width="40" height="20" as="geometry" />
        </mxCell>
        <mxCell id="sfMBgz_jQD0GcyN78Wl_-34" value="6" style="text;html=1;strokeColor=none;fillColor=none;align=center;verticalAlign=middle;whiteSpace=wrap;rounded=0;" vertex="1" parent="1">
          <mxGeometry x="340" y="450" width="40" height="20" as="geometry" />
        </mxCell>
        <mxCell id="sfMBgz_jQD0GcyN78Wl_-35" value="2" style="text;html=1;strokeColor=none;fillColor=none;align=center;verticalAlign=middle;whiteSpace=wrap;rounded=0;" vertex="1" parent="1">
          <mxGeometry x="290" y="460" width="40" height="20" as="geometry" />
        </mxCell>
        <mxCell id="sfMBgz_jQD0GcyN78Wl_-36" value="3" style="text;html=1;strokeColor=none;fillColor=none;align=center;verticalAlign=middle;whiteSpace=wrap;rounded=0;" vertex="1" parent="1">
          <mxGeometry x="280" y="490" width="40" height="20" as="geometry" />
        </mxCell>
      </root>
    </mxGraphModel>
  </diagram>
</mxfile>
